<svg xmlns="http://www.w3.org/2000/svg" xmlns:xlink="http://www.w3.org/1999/xlink" width="500" zoomAndPan="magnify" viewBox="0 0 375 299.999988" height="400" preserveAspectRatio="xMidYMid meet" version="1.0">
    <defs>
        <g />
        <clipPath id="89f85a2dda">
            <path d="M 106.453125 23.066406 L 266.949219 23.066406 L 266.949219 199.316406 L 106.453125 199.316406 Z M 106.453125 23.066406 " clip-rule="nonzero" />
        </clipPath>
    </defs>
    <g clip-path="url(#89f85a2dda)">
        <path fill="#000000" d="M 203.609375 199.300781 L 169.789062 199.300781 L 169.789062 172.234375 L 203.605469 172.234375 C 223.550781 172.234375 239.78125 156.003906 239.78125 136.046875 C 239.78125 116.089844 223.550781 99.851562 203.605469 99.851562 L 167.433594 99.851562 C 159.960938 99.851562 153.90625 93.792969 153.90625 86.320312 L 153.90625 72.789062 L 203.609375 72.789062 C 217.015625 72.789062 229.429688 77.015625 239.671875 84.160156 C 238.546875 65.1875 222.855469 50.132812 203.609375 50.132812 L 169.789062 50.132812 C 149.839844 50.132812 133.613281 66.367188 133.613281 86.324219 C 133.613281 106.28125 149.839844 122.519531 169.789062 122.519531 L 205.960938 122.519531 C 213.433594 122.519531 219.484375 128.578125 219.484375 136.050781 L 219.484375 149.582031 L 169.792969 149.582031 C 156.386719 149.582031 143.964844 145.359375 133.726562 138.210938 C 134.847656 157.1875 150.539062 172.238281 169.792969 172.238281 L 169.792969 199.300781 C 146.664062 199.300781 126.398438 186.816406 115.375 168.230469 C 107.394531 154.777344 116.101562 137.960938 131.070312 136.21875 C 116.1875 124.640625 106.558594 106.601562 106.558594 86.320312 C 106.558594 51.441406 134.925781 23.066406 169.792969 23.066406 L 203.613281 23.066406 C 226.738281 23.066406 247.003906 35.550781 258.027344 54.140625 C 266.003906 67.589844 257.296875 84.410156 242.328125 86.148438 C 257.207031 97.734375 266.835938 115.769531 266.835938 136.050781 C 266.835938 170.929688 238.476562 199.300781 203.609375 199.300781 Z M 203.609375 199.300781 " fill-opacity="1" fill-rule="nonzero" />
    </g>
    <g fill="#000000" fill-opacity="1">
        <g transform="translate(6.708482, 260.551063)">
            <g>
                <path d="M 16.757812 0.550781 C 24.453125 0.550781 30.976562 -3.984375 30.976562 -11.675781 C 30.976562 -26.925781 12.019531 -23.148438 12.019531 -30.289062 C 12.019531 -32.625 13.804688 -33.726562 16.003906 -33.726562 C 18.339844 -33.726562 20.675781 -32.421875 22.734375 -30.152344 L 28.78125 -35.921875 C 25.757812 -39.425781 21.15625 -41.761719 16.074219 -41.761719 C 9.546875 -41.761719 2.886719 -37.847656 2.886719 -29.605469 C 2.886719 -15.59375 21.910156 -18.957031 21.910156 -11.746094 C 21.910156 -9.480469 19.988281 -7.96875 16.828125 -7.96875 C 13.050781 -7.96875 10.097656 -10.097656 8.585938 -13.324219 L 1.097656 -8.65625 C 3.777344 -3.503906 9.546875 0.550781 16.757812 0.550781 Z M 16.757812 0.550781 " />
            </g>
        </g>
    </g>
    <g fill="#000000" fill-opacity="1">
        <g transform="translate(38.163303, 260.551063)">
            <g>
                <path d="M 17.445312 0.550781 C 25.6875 0.550781 31.320312 -4.257812 32.488281 -11.128906 L 23.421875 -11.128906 C 22.527344 -8.792969 20.261719 -7.28125 17.445312 -7.210938 C 13.667969 -7.28125 10.921875 -10.027344 10.921875 -13.738281 C 10.921875 -17.445312 13.667969 -20.195312 17.445312 -20.261719 C 20.261719 -20.195312 22.527344 -18.683594 23.421875 -16.347656 L 32.488281 -16.347656 C 31.320312 -23.214844 25.6875 -28.023438 17.445312 -28.023438 C 8.242188 -28.023438 2.128906 -21.980469 2.128906 -13.738281 C 2.128906 -5.496094 8.242188 0.550781 17.445312 0.550781 Z M 17.445312 0.550781 " />
            </g>
        </g>
    </g>
    <g fill="#000000" fill-opacity="1">
        <g transform="translate(71.12907, 260.551063)">
            <g>
                <path d="M 20.539062 -28.023438 C 17.515625 -28.023438 14.769531 -26.652344 12.84375 -24.382812 L 12.84375 -47.050781 L 4.050781 -47.050781 L 4.050781 0 L 12.84375 0 L 12.84375 -15.523438 C 12.84375 -17.925781 14.835938 -20.261719 17.515625 -20.261719 C 19.988281 -20.261719 21.703125 -18.339844 21.703125 -15.933594 L 21.703125 0 L 30.496094 0 L 30.496094 -17.378906 C 30.496094 -23.421875 26.101562 -28.023438 20.539062 -28.023438 Z M 20.539062 -28.023438 " />
            </g>
        </g>
    </g>
    <g fill="#000000" fill-opacity="1">
        <g transform="translate(103.95748, 260.551063)">
            <g>
                <path d="M 16.347656 0.550781 C 24.660156 0.550781 29.261719 -3.777344 29.261719 -10.507812 L 29.261719 -27.476562 L 20.539062 -27.476562 L 20.539062 -11.675781 C 20.539062 -9.066406 18.75 -7.210938 16.347656 -7.210938 C 14.011719 -7.210938 12.226562 -9.066406 12.226562 -11.675781 L 12.226562 -27.476562 L 3.433594 -27.476562 L 3.433594 -10.507812 C 3.433594 -3.777344 8.035156 0.550781 16.347656 0.550781 Z M 16.347656 0.550781 " />
            </g>
        </g>
    </g>
    <g fill="#000000" fill-opacity="1">
        <g transform="translate(135.618335, 260.551063)">
            <g>
                <path d="M 23.695312 0.550781 C 31.871094 0.550781 38.945312 -4.050781 42.449219 -10.785156 L 34.617188 -14.835938 C 32.625 -10.921875 28.574219 -8.3125 23.695312 -8.3125 C 16.757812 -8.3125 11.46875 -13.667969 11.46875 -20.605469 C 11.46875 -27.542969 16.757812 -32.902344 23.695312 -32.902344 C 28.574219 -32.902344 32.625 -30.289062 34.617188 -26.375 L 42.449219 -30.429688 C 38.945312 -37.160156 31.871094 -41.761719 23.695312 -41.761719 C 12.019531 -41.761719 2.542969 -32.28125 2.542969 -20.605469 C 2.542969 -8.929688 12.019531 0.550781 23.695312 0.550781 Z M 23.695312 0.550781 " />
            </g>
        </g>
    </g>
    <g fill="#000000" fill-opacity="1">
        <g transform="translate(178.748656, 260.551063)">
            <g>
                <path d="M 4.050781 0 L 12.84375 0 L 12.84375 -47.050781 L 4.050781 -47.050781 Z M 4.050781 0 " />
            </g>
        </g>
    </g>
    <g fill="#000000" fill-opacity="1">
        <g transform="translate(194.544591, 260.551063)">
            <g>
                <path d="M 17.445312 0.550781 C 26.652344 0.550781 32.695312 -5.496094 32.695312 -13.738281 C 32.695312 -21.980469 26.652344 -28.023438 17.445312 -28.023438 C 8.242188 -28.023438 2.128906 -21.980469 2.128906 -13.738281 C 2.128906 -5.496094 8.242188 0.550781 17.445312 0.550781 Z M 17.445312 -7.210938 C 13.667969 -7.28125 10.921875 -10.027344 10.921875 -13.738281 C 10.921875 -17.445312 13.667969 -20.195312 17.445312 -20.261719 C 21.15625 -20.195312 23.972656 -17.445312 23.972656 -13.738281 C 23.972656 -10.027344 21.15625 -7.28125 17.445312 -7.210938 Z M 17.445312 -7.210938 " />
            </g>
        </g>
    </g>
    <g fill="#000000" fill-opacity="1">
        <g transform="translate(228.334513, 260.551063)">
            <g>
                <path d="M 20.605469 -20.675781 L 20.605469 -27.476562 L 14.082031 -27.476562 L 14.082031 -38.050781 L 5.359375 -38.050781 L 5.359375 -27.476562 L 0.753906 -27.476562 L 0.753906 -20.675781 L 5.359375 -20.675781 L 5.359375 -9.820312 C 5.359375 -3.984375 10.304688 0.550781 16.140625 0.550781 C 17.996094 0.550781 19.851562 0.136719 20.539062 -0.34375 L 20.539062 -7.144531 L 17.242188 -7.144531 C 15.386719 -7.144531 14.082031 -8.585938 14.082031 -10.851562 L 14.082031 -20.675781 Z M 20.605469 -20.675781 " />
            </g>
        </g>
    </g>
    <g fill="#000000" fill-opacity="1">
        <g transform="translate(249.212722, 260.551063)">
            <g>
                <path d="M 20.539062 -28.023438 C 17.515625 -28.023438 14.769531 -26.652344 12.84375 -24.382812 L 12.84375 -47.050781 L 4.050781 -47.050781 L 4.050781 0 L 12.84375 0 L 12.84375 -15.523438 C 12.84375 -17.925781 14.835938 -20.261719 17.515625 -20.261719 C 19.988281 -20.261719 21.703125 -18.339844 21.703125 -15.933594 L 21.703125 0 L 30.496094 0 L 30.496094 -17.378906 C 30.496094 -23.421875 26.101562 -28.023438 20.539062 -28.023438 Z M 20.539062 -28.023438 " />
            </g>
        </g>
    </g>
    <g fill="#000000" fill-opacity="1">
        <g transform="translate(282.041138, 260.551063)">
            <g>
                <path d="M 8.585938 -32.078125 C 11.195312 -32.078125 13.394531 -34.273438 13.394531 -36.882812 C 13.394531 -39.5625 11.195312 -41.691406 8.585938 -41.691406 C 5.976562 -41.691406 3.777344 -39.5625 3.777344 -36.882812 C 3.777344 -34.273438 5.976562 -32.078125 8.585938 -32.078125 Z M 4.191406 0 L 12.914062 0 L 12.914062 -27.476562 L 4.191406 -27.476562 Z M 4.191406 0 " />
            </g>
        </g>
    </g>
    <g fill="#000000" fill-opacity="1">
        <g transform="translate(298.111798, 260.551063)">
            <g>
                <path d="M 20.675781 -28.023438 C 17.515625 -28.023438 14.769531 -26.511719 12.84375 -24.109375 L 12.84375 -27.476562 L 4.050781 -27.476562 L 4.050781 0 L 12.84375 0 L 12.84375 -15.933594 C 12.84375 -18.40625 14.90625 -20.261719 17.445312 -20.261719 C 19.988281 -20.261719 21.773438 -18.40625 21.773438 -15.933594 L 21.773438 0 L 30.496094 0 L 30.496094 -17.378906 C 30.496094 -23.421875 26.101562 -28.023438 20.675781 -28.023438 Z M 20.675781 -28.023438 " />
            </g>
        </g>
    </g>
    <g fill="#000000" fill-opacity="1">
        <g transform="translate(331.008892, 260.551063)">
            <g>
                <path d="M 33.105469 -27.476562 L 24.316406 -27.476562 L 24.316406 -24.726562 C 22.046875 -26.789062 19.09375 -28.023438 15.730469 -28.023438 C 8.105469 -28.023438 2.128906 -21.773438 2.128906 -13.738281 C 2.128906 -5.769531 8.105469 0.550781 15.730469 0.550781 C 19.164062 0.550781 22.1875 -0.753906 24.453125 -2.886719 L 24.453125 0.753906 C 24.453125 5.839844 21.636719 8.929688 17.171875 8.929688 C 14.011719 8.929688 11.609375 7.210938 10.578125 4.464844 L 2.542969 7.691406 C 4.808594 13.324219 9.960938 16.554688 17.171875 16.554688 C 27.199219 16.554688 33.175781 10.441406 33.175781 0.273438 Z M 17.925781 -7.210938 C 14.285156 -7.210938 11.402344 -10.097656 11.402344 -13.738281 C 11.402344 -17.378906 14.285156 -20.261719 17.925781 -20.261719 C 21.566406 -20.261719 24.519531 -17.378906 24.519531 -13.738281 C 24.519531 -10.097656 21.566406 -7.210938 17.925781 -7.210938 Z M 17.925781 -7.210938 " />
            </g>
        </g>
    </g>
</svg>